HIERARCHY
ROOT Hips
{
	OFFSET -21.947001 39.810204 44.525997
	CHANNELS 6 Xposition Yposition Zposition Zrotation Xrotation Yrotation
	JOINT Chest
	{
		OFFSET -0.201599 0.334099 6.453201
		CHANNELS 6 Xposition Yposition Zposition Zrotation Xrotation Yrotation
		JOINT Chest2
		{
			OFFSET 0.000000 0.000000 3.568001
			CHANNELS 6 Xposition Yposition Zposition Zrotation Xrotation Yrotation
			JOINT Neck
			{
				OFFSET 0.000000 0.000000 8.296402
				CHANNELS 6 Xposition Yposition Zposition Zrotation Xrotation Yrotation
				JOINT Head
				{
					OFFSET 0.000000 0.000000 2.173901
					CHANNELS 6 Xposition Yposition Zposition Zrotation Xrotation Yrotation
					End Site
					{
						OFFSET 0.000000 0.000000 7.891998
					}
				}
			}
			JOINT LeftCollar
			{
				OFFSET 1.927601 0.221401 6.049000
				CHANNELS 6 Xposition Yposition Zposition Zrotation Xrotation Yrotation
				JOINT LeftShoulder
				{
					OFFSET 4.959700 0.000000 0.000000
					CHANNELS 6 Xposition Yposition Zposition Zrotation Xrotation Yrotation
					JOINT LeftElbow
					{
						OFFSET 0.000000 0.000000 -8.654202
						CHANNELS 6 Xposition Yposition Zposition Zrotation Xrotation Yrotation
						JOINT LeftWrist
						{
							OFFSET 0.000000 0.000000 -13.864101
							CHANNELS 6 Xposition Yposition Zposition Zrotation Xrotation Yrotation
							End Site
							{
								OFFSET 0.000000 0.000000 -2.173901
							}
						}
					}
				}
			}
			JOINT RightCollar
			{
				OFFSET -3.155701 -0.764999 6.687801
				CHANNELS 6 Xposition Yposition Zposition Zrotation Xrotation Yrotation
				JOINT RightShoulder
				{
					OFFSET -3.592899 0.000000 0.000000
					CHANNELS 6 Xposition Yposition Zposition Zrotation Xrotation Yrotation
					JOINT RightElbow
					{
						OFFSET 0.000000 0.000000 -10.352398
						CHANNELS 6 Xposition Yposition Zposition Zrotation Xrotation Yrotation
						JOINT RightWrist
						{
							OFFSET 0.000000 0.000000 -12.750301
							CHANNELS 6 Xposition Yposition Zposition Zrotation Xrotation Yrotation
							End Site
							{
								OFFSET 0.000000 0.000000 -2.173901
							}
						}
					}
				}
			}
		}
	}
	JOINT LeftHip
	{
		OFFSET 2.460600 -0.518101 -2.735500
		CHANNELS 6 Xposition Yposition Zposition Zrotation Xrotation Yrotation
		JOINT LeftKnee
		{
			OFFSET 0.000000 -0.000004 -17.005899
			CHANNELS 6 Xposition Yposition Zposition Zrotation Xrotation Yrotation
			JOINT LeftAnkle
			{
				OFFSET 0.000000 0.000000 -19.194401
				CHANNELS 6 Xposition Yposition Zposition Zrotation Xrotation Yrotation
				End Site
				{
					OFFSET 0.000000 -8.134600 0.000000
				}
			}
		}
	}
	JOINT RightHip
	{
		OFFSET -3.115499 -0.679600 -2.320301
		CHANNELS 6 Xposition Yposition Zposition Zrotation Xrotation Yrotation
		JOINT RightKnee
		{
			OFFSET 0.000000 -0.000004 -17.680401
			CHANNELS 6 Xposition Yposition Zposition Zrotation Xrotation Yrotation
			JOINT RightAnkle
			{
				OFFSET 0.000000 0.000000 -16.993797
				CHANNELS 6 Xposition Yposition Zposition Zrotation Xrotation Yrotation
				End Site
				{
					OFFSET 0.000000 -8.842300 0.000000
				}
			}
		}
	}
}
MOTION
Frames: 5
Frame Time: 0.041667
-17.749905 31.356104 45.246994 2552.339185 23.237775 26.178863 -0.201598 0.334102 6.453203 17.716481 -12.827462 -21.460866 -0.000005 0.000004 3.567999 -0.927080 -2.564077 -0.245801 0.000001 0.000001 8.296393 129.611049 -172.852130 176.955462 0.000000 -0.000008 2.173908 -1.226592 4.429958 -8.698193 1.927599 0.221402 6.048995 13.761225 -20.940131 -14.622708 4.959702 -0.000002 0.000009 163.612933 182.129235 40.203976 -0.000001 0.000003 -8.654190 158.147143 -49.880752 136.390968 0.000000 0.000000 -13.864101 4088.660957 -126.785482 187.268378 -3.155704 -0.764996 6.687796 45.275616 1.900545 -14.072628 -3.592909 -0.000002 0.000001 -148.716181 183.714153 232.527233 -0.000005 0.000002 -10.352395 -399.913423 -0.519891 -361.796596 -0.000003 -0.000006 -12.750303 -91.475965 183.561716 -133.309570 2.460599 -0.518097 -2.735499 67.006635 -34.268360 27.320811 0.000001 -0.000004 -17.005898 -277.748167 146.342472 -158.341694 -0.000007 0.000007 -19.194399 573.123796 165.944213 183.491584 -3.115505 -0.679595 -2.320296 145.955487 58.056321 -59.944875 -0.000003 -0.000001 -17.680401 -915.021974 209.005674 -245.836540 0.000009 -0.000006 -16.993790 968.825287 57.407747 -435.356476
-17.762600 31.369209 45.241993 2552.267714 23.271597 26.115165 -0.201599 0.334098 6.453202 17.761734 -12.790242 -21.466181 -0.000002 0.000005 3.568000 -0.932869 -2.569066 -0.245241 0.000003 0.000005 8.296389 129.698927 -172.763843 177.037506 -0.000000 -0.000002 2.173907 -1.208991 4.422171 -8.765674 1.927602 0.221409 6.048993 13.748696 -20.932103 -14.737759 4.959697 -0.000004 0.000002 163.624326 182.266658 40.233537 -0.000003 -0.000005 -8.654201 157.824375 -49.598535 136.302285 -0.000005 0.000000 -13.864101 4088.532003 -126.806505 187.330451 -3.155701 -0.764995 6.687791 45.339940 1.931671 -14.078727 -3.592913 -0.000004 -0.000004 -148.775727 183.578191 232.661925 -0.000002 0.000002 -10.352404 -400.159364 -0.515963 -361.824080 0.000003 -0.000005 -12.750301 -91.351198 183.427093 -133.451883 2.460601 -0.518098 -2.735500 66.942862 -34.229025 27.393360 0.000002 -0.000004 -17.005896 -278.378321 146.442794 -158.076696 -0.000007 0.000009 -19.194399 573.584916 166.080011 184.105618 -3.115499 -0.679598 -2.320296 146.128824 58.073151 -59.825381 0.000000 -0.000004 -17.680401 -915.181582 208.875162 -246.015873 0.000005 -0.000004 -16.993797 968.872497 57.239372 -435.262056
-17.767303 31.380106 45.234497 2552.262687 23.095443 25.827691 -0.201600 0.334094 6.453203 17.875683 -12.483120 -21.340052 -0.000001 0.000002 3.567996 -0.924407 -2.580605 -0.244945 0.000000 0.000009 8.296398 129.763718 -172.644410 177.107434 0.000001 -0.000003 2.173906 -1.244392 4.420363 -8.752107 1.927601 0.221410 6.049001 13.757731 -20.954875 -14.887038 4.959709 0.000005 0.000008 163.595598 182.380804 40.323897 -0.000001 0.000003 -8.654200 157.439453 -49.317849 136.176541 -0.000007 -0.000002 -13.864098 4087.976408 -126.830698 187.032969 -3.155705 -0.764994 6.687807 45.402747 1.965784 -14.088850 -3.592905 -0.000003 0.000000 -148.745442 183.414007 232.808364 0.000002 0.000002 -10.352398 -400.091253 -0.451645 -361.823097 0.000002 -0.000004 -12.750296 -91.946579 183.003444 -133.059830 2.460597 -0.518108 -2.735504 66.664408 -33.901432 27.329301 0.000004 -0.000005 -17.005894 -277.427531 146.062735 -158.514784 -0.000005 0.000003 -19.194401 573.350394 166.063660 183.656902 -3.115502 -0.679604 -2.320294 146.589452 58.103784 -60.041891 0.000013 -0.000001 -17.680405 -915.221525 208.677975 -246.172585 -0.000006 -0.000006 -16.993792 969.022652 57.179472 -435.242795
-17.769199 31.394802 45.226288 2552.262032 23.067822 25.883560 -0.201595 0.334100 6.453195 17.860798 -12.428255 -21.519170 0.000005 0.000003 3.568004 -0.907242 -2.594082 -0.244179 -0.000001 -0.000006 8.296387 129.807199 -172.524595 177.192019 -0.000002 -0.000003 2.173900 -1.293638 4.427627 -8.716382 1.927601 0.221402 6.048989 13.783878 -20.969681 -15.018319 4.959698 -0.000000 0.000012 163.538580 182.460471 40.436591 0.000000 -0.000002 -8.654200 157.068669 -49.186532 136.025280 -0.000001 -0.000001 -13.864100 4087.652056 -126.797189 186.870998 -3.155702 -0.765005 6.687790 45.479955 2.027179 -14.133826 -3.592902 -0.000006 0.000002 -148.708040 183.221641 232.962289 -0.000002 0.000005 -10.352396 -400.032295 -0.410054 -361.806267 0.000006 -0.000002 -12.750299 -92.159613 183.045586 -133.018535 2.460595 -0.518099 -2.735501 66.215030 -33.940566 27.263421 0.000003 -0.000003 -17.005899 -276.670200 145.641053 -158.896469 -0.000005 0.000008 -19.194401 573.272858 166.061583 183.597753 -3.115501 -0.679594 -2.320298 146.710196 57.907710 -59.865317 -0.000001 -0.000003 -17.680405 -915.447031 208.850915 -246.209359 -0.000001 -0.000011 -16.993786 968.907249 57.147592 -435.181678
-17.769897 31.410606 45.220398 2552.283014 23.084245 25.752472 -0.201598 0.334100 6.453202 17.889893 -12.365488 -21.504748 0.000001 -0.000002 3.568001 -0.904053 -2.609473 -0.245376 -0.000005 0.000002 8.296397 129.799522 -172.428877 177.241551 -0.000000 -0.000004 2.173899 -1.303142 4.324529 -8.771979 1.927594 0.221404 6.049002 13.540966 -20.767035 -15.127959 4.959696 -0.000000 0.000011 163.653750 182.706782 40.422531 0.000003 -0.000001 -8.654188 157.006160 -49.165221 136.054827 -0.000002 0.000005 -13.864101 4087.902970 -126.716374 187.093252 -3.155707 -0.765001 6.687799 45.498315 2.057597 -14.152233 -3.592905 -0.000006 0.000000 -148.660174 183.093357 233.061136 -0.000002 0.000004 -10.352402 -399.869709 -0.333816 -361.794383 -0.000002 -0.000006 -12.750303 -92.549453 182.942423 -132.659527 2.460598 -0.518096 -2.735497 65.731992 -33.845633 27.279205 0.000005 -0.000004 -17.005901 -275.671517 145.262974 -159.387724 -0.000008 0.000007 -19.194399 573.168438 165.910090 183.323288 -3.115496 -0.679598 -2.320300 146.815749 57.906474 -59.776538 0.000006 -0.000001 -17.680403 -915.713736 208.857158 -246.307768 0.000005 -0.000002 -16.993792 968.908342 57.076086 -434.980980
